<svg width="256" height="256" viewBox="0 0 256 256" fill="none" xmlns="http://www.w3.org/2000/svg">
  <rect width="256" height="256" rx="128" fill="url(#paint0_linear)" />
  <path d="M182.225 117.95C182.225 90.45 160 68.225 132.5 68.225H123.5C96 68.225 73.775 90.45 73.775 117.95V137.95C73.775 165.45 96 187.675 123.5 187.675H132.5C160 187.675 182.225 165.45 182.225 137.95V117.95Z" fill="white"/>
  <path d="M128 156.625C138.942 156.625 147.8 147.767 147.8 136.825C147.8 125.883 138.942 117.025 128 117.025C117.058 117.025 108.2 125.883 108.2 136.825C108.2 147.767 117.058 156.625 128 156.625Z" fill="url(#paint1_linear)"/>
  <path d="M127.425 100.325C129.05 100.325 130.375 98.975 130.375 97.35V83.5C130.375 81.875 129.05 80.55 127.425 80.55C125.8 80.55 124.475 81.875 124.475 83.5V97.35C124.475 98.975 125.8 100.325 127.425 100.325Z" fill="url(#paint2_linear)"/>
  <path d="M127.425 175.45C129.05 175.45 130.375 174.125 130.375 172.5V158.65C130.375 157.025 129.05 155.7 127.425 155.7C125.8 155.7 124.475 157.025 124.475 158.65V172.5C124.475 174.125 125.8 175.45 127.425 175.45Z" fill="url(#paint3_linear)"/>
  <path d="M172.5 130.375H158.65C157.025 130.375 155.7 129.05 155.7 127.425C155.7 125.8 157.025 124.475 158.65 124.475H172.5C174.125 124.475 175.45 125.8 175.45 127.425C175.45 129.05 174.125 130.375 172.5 130.375Z" fill="url(#paint4_linear)"/>
  <path d="M97.35 130.375H83.5C81.875 130.375 80.55 129.05 80.55 127.425C80.55 125.8 81.875 124.475 83.5 124.475H97.35C98.975 124.475 100.325 125.8 100.325 127.425C100.325 129.05 98.975 130.375 97.35 130.375Z" fill="url(#paint5_linear)"/>
  <path fill-rule="evenodd" clip-rule="evenodd" d="M128 138.112C128.709 138.112 129.288 137.534 129.288 136.825V129.288H136.825C137.534 129.288 138.112 128.709 138.112 128C138.112 127.291 137.534 126.713 136.825 126.713H129.288V119.175C129.288 118.466 128.709 117.888 128 117.888C127.291 117.888 126.713 118.466 126.713 119.175V126.713H119.175C118.466 126.713 117.888 127.291 117.888 128C117.888 128.709 118.466 129.288 119.175 129.288H126.713V136.825C126.713 137.534 127.291 138.112 128 138.112Z" fill="white"/>
  <defs>
    <linearGradient id="paint0_linear" x1="0" y1="0" x2="256" y2="256" gradientUnits="userSpaceOnUse">
      <stop stop-color="#4F46E5"/>
      <stop offset="1" stop-color="#7C3AED"/>
    </linearGradient>
    <linearGradient id="paint1_linear" x1="108.2" y1="117.025" x2="147.8" y2="156.625" gradientUnits="userSpaceOnUse">
      <stop stop-color="#4F46E5"/>
      <stop offset="1" stop-color="#7C3AED"/>
    </linearGradient>
    <linearGradient id="paint2_linear" x1="124.475" y1="80.55" x2="130.375" y2="80.55" gradientUnits="userSpaceOnUse">
      <stop stop-color="#4F46E5"/>
      <stop offset="1" stop-color="#7C3AED"/>
    </linearGradient>
    <linearGradient id="paint3_linear" x1="124.475" y1="155.7" x2="130.375" y2="155.7" gradientUnits="userSpaceOnUse">
      <stop stop-color="#4F46E5"/>
      <stop offset="1" stop-color="#7C3AED"/>
    </linearGradient>
    <linearGradient id="paint4_linear" x1="155.7" y1="124.475" x2="175.45" y2="124.475" gradientUnits="userSpaceOnUse">
      <stop stop-color="#4F46E5"/>
      <stop offset="1" stop-color="#7C3AED"/>
    </linearGradient>
    <linearGradient id="paint5_linear" x1="80.55" y1="124.475" x2="100.325" y2="124.475" gradientUnits="userSpaceOnUse">
      <stop stop-color="#4F46E5"/>
      <stop offset="1" stop-color="#7C3AED"/>
    </linearGradient>
  </defs>
</svg> 